<mxfile host="Electron" modified="2024-03-06T12:31:42.980Z" agent="Mozilla/5.0 (Windows NT 10.0; Win64; x64) AppleWebKit/537.36 (KHTML, like Gecko) draw.io/23.1.5 Chrome/120.0.6099.109 Electron/28.1.0 Safari/537.36" etag="86Ae-ypjWzjRn9CD_JtC" version="23.1.5" type="device">
  <diagram id="C5RBs43oDa-KdzZeNtuy" name="Page-1">
    <mxGraphModel dx="925" dy="689" grid="1" gridSize="10" guides="1" tooltips="1" connect="1" arrows="1" fold="1" page="1" pageScale="1" pageWidth="827" pageHeight="1169" math="0" shadow="0">
      <root>
        <mxCell id="WIyWlLk6GJQsqaUBKTNV-0" />
        <mxCell id="WIyWlLk6GJQsqaUBKTNV-1" parent="WIyWlLk6GJQsqaUBKTNV-0" />
        <mxCell id="WIyWlLk6GJQsqaUBKTNV-2" value="" style="rounded=0;html=1;jettySize=auto;orthogonalLoop=1;fontSize=11;endArrow=block;endFill=0;endSize=8;strokeWidth=1;shadow=0;labelBackgroundColor=none;edgeStyle=orthogonalEdgeStyle;entryX=0.5;entryY=0;entryDx=0;entryDy=0;" parent="WIyWlLk6GJQsqaUBKTNV-1" source="WIyWlLk6GJQsqaUBKTNV-3" target="lSsWX_e3qTCy8vR7yPE1-0" edge="1">
          <mxGeometry relative="1" as="geometry">
            <mxPoint x="450" y="180" as="targetPoint" />
          </mxGeometry>
        </mxCell>
        <mxCell id="WIyWlLk6GJQsqaUBKTNV-3" value="开始" style="rounded=1;whiteSpace=wrap;html=1;fontSize=12;glass=0;strokeWidth=1;shadow=0;" parent="WIyWlLk6GJQsqaUBKTNV-1" vertex="1">
          <mxGeometry x="380" y="90" width="120" height="40" as="geometry" />
        </mxCell>
        <mxCell id="lSsWX_e3qTCy8vR7yPE1-5" style="edgeStyle=orthogonalEdgeStyle;rounded=0;orthogonalLoop=1;jettySize=auto;html=1;exitX=0.5;exitY=1;exitDx=0;exitDy=0;entryX=0.5;entryY=0;entryDx=0;entryDy=0;" parent="WIyWlLk6GJQsqaUBKTNV-1" source="lSsWX_e3qTCy8vR7yPE1-0" target="lSsWX_e3qTCy8vR7yPE1-2" edge="1">
          <mxGeometry relative="1" as="geometry" />
        </mxCell>
        <mxCell id="RcgU6G-KKBRbS7jpkdpi-0" style="edgeStyle=orthogonalEdgeStyle;rounded=0;orthogonalLoop=1;jettySize=auto;html=1;exitX=0.5;exitY=1;exitDx=0;exitDy=0;entryX=0.5;entryY=0;entryDx=0;entryDy=0;" edge="1" parent="WIyWlLk6GJQsqaUBKTNV-1" source="lSsWX_e3qTCy8vR7yPE1-0" target="lSsWX_e3qTCy8vR7yPE1-1">
          <mxGeometry relative="1" as="geometry" />
        </mxCell>
        <mxCell id="lSsWX_e3qTCy8vR7yPE1-0" value="首页选择功能1/2" style="rounded=1;whiteSpace=wrap;html=1;fontSize=12;glass=0;strokeWidth=1;shadow=0;" parent="WIyWlLk6GJQsqaUBKTNV-1" vertex="1">
          <mxGeometry x="380" y="160" width="120" height="40" as="geometry" />
        </mxCell>
        <mxCell id="RcgU6G-KKBRbS7jpkdpi-3" style="edgeStyle=orthogonalEdgeStyle;rounded=0;orthogonalLoop=1;jettySize=auto;html=1;exitX=0.5;exitY=1;exitDx=0;exitDy=0;entryX=0.5;entryY=0;entryDx=0;entryDy=0;" edge="1" parent="WIyWlLk6GJQsqaUBKTNV-1" source="lSsWX_e3qTCy8vR7yPE1-1" target="RcgU6G-KKBRbS7jpkdpi-1">
          <mxGeometry relative="1" as="geometry" />
        </mxCell>
        <mxCell id="RcgU6G-KKBRbS7jpkdpi-4" style="edgeStyle=orthogonalEdgeStyle;rounded=0;orthogonalLoop=1;jettySize=auto;html=1;exitX=0.5;exitY=1;exitDx=0;exitDy=0;entryX=0.5;entryY=0;entryDx=0;entryDy=0;" edge="1" parent="WIyWlLk6GJQsqaUBKTNV-1" source="lSsWX_e3qTCy8vR7yPE1-1" target="RcgU6G-KKBRbS7jpkdpi-2">
          <mxGeometry relative="1" as="geometry" />
        </mxCell>
        <mxCell id="lSsWX_e3qTCy8vR7yPE1-1" value="1、问答科普" style="rounded=1;whiteSpace=wrap;html=1;fontSize=12;glass=0;strokeWidth=1;shadow=0;" parent="WIyWlLk6GJQsqaUBKTNV-1" vertex="1">
          <mxGeometry x="180" y="280" width="120" height="40" as="geometry" />
        </mxCell>
        <mxCell id="lSsWX_e3qTCy8vR7yPE1-12" style="edgeStyle=orthogonalEdgeStyle;rounded=0;orthogonalLoop=1;jettySize=auto;html=1;exitX=0.5;exitY=1;exitDx=0;exitDy=0;entryX=0.5;entryY=0;entryDx=0;entryDy=0;" parent="WIyWlLk6GJQsqaUBKTNV-1" source="lSsWX_e3qTCy8vR7yPE1-2" target="lSsWX_e3qTCy8vR7yPE1-11" edge="1">
          <mxGeometry relative="1" as="geometry" />
        </mxCell>
        <mxCell id="lSsWX_e3qTCy8vR7yPE1-2" value="2、图片科普" style="rounded=1;whiteSpace=wrap;html=1;fontSize=12;glass=0;strokeWidth=1;shadow=0;" parent="WIyWlLk6GJQsqaUBKTNV-1" vertex="1">
          <mxGeometry x="580" y="280" width="120" height="40" as="geometry" />
        </mxCell>
        <mxCell id="RcgU6G-KKBRbS7jpkdpi-34" style="edgeStyle=orthogonalEdgeStyle;rounded=0;orthogonalLoop=1;jettySize=auto;html=1;exitX=0.5;exitY=1;exitDx=0;exitDy=0;entryX=0.5;entryY=0;entryDx=0;entryDy=0;" edge="1" parent="WIyWlLk6GJQsqaUBKTNV-1" source="lSsWX_e3qTCy8vR7yPE1-11" target="lSsWX_e3qTCy8vR7yPE1-14">
          <mxGeometry relative="1" as="geometry" />
        </mxCell>
        <mxCell id="RcgU6G-KKBRbS7jpkdpi-35" style="edgeStyle=orthogonalEdgeStyle;rounded=0;orthogonalLoop=1;jettySize=auto;html=1;exitX=0.5;exitY=1;exitDx=0;exitDy=0;" edge="1" parent="WIyWlLk6GJQsqaUBKTNV-1" source="lSsWX_e3qTCy8vR7yPE1-11" target="RcgU6G-KKBRbS7jpkdpi-33">
          <mxGeometry relative="1" as="geometry" />
        </mxCell>
        <mxCell id="lSsWX_e3qTCy8vR7yPE1-11" value="上传图片" style="shape=parallelogram;perimeter=parallelogramPerimeter;whiteSpace=wrap;html=1;fixedSize=1;" parent="WIyWlLk6GJQsqaUBKTNV-1" vertex="1">
          <mxGeometry x="580" y="380" width="120" height="50" as="geometry" />
        </mxCell>
        <mxCell id="lSsWX_e3qTCy8vR7yPE1-14" value="识别图像" style="rounded=1;whiteSpace=wrap;html=1;fontSize=12;glass=0;strokeWidth=1;shadow=0;" parent="WIyWlLk6GJQsqaUBKTNV-1" vertex="1">
          <mxGeometry x="500" y="530" width="120" height="40" as="geometry" />
        </mxCell>
        <mxCell id="RcgU6G-KKBRbS7jpkdpi-16" style="edgeStyle=orthogonalEdgeStyle;rounded=0;orthogonalLoop=1;jettySize=auto;html=1;exitX=0.5;exitY=1;exitDx=0;exitDy=0;entryX=0.5;entryY=0;entryDx=0;entryDy=0;" edge="1" parent="WIyWlLk6GJQsqaUBKTNV-1" source="RcgU6G-KKBRbS7jpkdpi-1" target="RcgU6G-KKBRbS7jpkdpi-15">
          <mxGeometry relative="1" as="geometry" />
        </mxCell>
        <mxCell id="RcgU6G-KKBRbS7jpkdpi-1" value="科普问答" style="rounded=1;whiteSpace=wrap;html=1;fontSize=12;glass=0;strokeWidth=1;shadow=0;" vertex="1" parent="WIyWlLk6GJQsqaUBKTNV-1">
          <mxGeometry x="60" y="360" width="120" height="40" as="geometry" />
        </mxCell>
        <mxCell id="RcgU6G-KKBRbS7jpkdpi-29" style="edgeStyle=orthogonalEdgeStyle;rounded=0;orthogonalLoop=1;jettySize=auto;html=1;exitX=0.5;exitY=1;exitDx=0;exitDy=0;entryX=0.5;entryY=0;entryDx=0;entryDy=0;" edge="1" parent="WIyWlLk6GJQsqaUBKTNV-1" source="RcgU6G-KKBRbS7jpkdpi-2" target="RcgU6G-KKBRbS7jpkdpi-27">
          <mxGeometry relative="1" as="geometry" />
        </mxCell>
        <mxCell id="RcgU6G-KKBRbS7jpkdpi-30" style="edgeStyle=orthogonalEdgeStyle;rounded=0;orthogonalLoop=1;jettySize=auto;html=1;exitX=0.5;exitY=1;exitDx=0;exitDy=0;entryX=0.5;entryY=0;entryDx=0;entryDy=0;" edge="1" parent="WIyWlLk6GJQsqaUBKTNV-1" source="RcgU6G-KKBRbS7jpkdpi-2" target="RcgU6G-KKBRbS7jpkdpi-25">
          <mxGeometry relative="1" as="geometry" />
        </mxCell>
        <mxCell id="RcgU6G-KKBRbS7jpkdpi-32" style="edgeStyle=orthogonalEdgeStyle;rounded=0;orthogonalLoop=1;jettySize=auto;html=1;exitX=0.5;exitY=1;exitDx=0;exitDy=0;entryX=0.5;entryY=0;entryDx=0;entryDy=0;" edge="1" parent="WIyWlLk6GJQsqaUBKTNV-1" source="RcgU6G-KKBRbS7jpkdpi-2" target="RcgU6G-KKBRbS7jpkdpi-28">
          <mxGeometry relative="1" as="geometry" />
        </mxCell>
        <mxCell id="RcgU6G-KKBRbS7jpkdpi-2" value="知识库" style="rounded=1;whiteSpace=wrap;html=1;fontSize=12;glass=0;strokeWidth=1;shadow=0;" vertex="1" parent="WIyWlLk6GJQsqaUBKTNV-1">
          <mxGeometry x="300" y="360" width="120" height="40" as="geometry" />
        </mxCell>
        <mxCell id="RcgU6G-KKBRbS7jpkdpi-24" style="edgeStyle=orthogonalEdgeStyle;rounded=0;orthogonalLoop=1;jettySize=auto;html=1;exitX=0.5;exitY=1;exitDx=0;exitDy=0;" edge="1" parent="WIyWlLk6GJQsqaUBKTNV-1" source="RcgU6G-KKBRbS7jpkdpi-5" target="RcgU6G-KKBRbS7jpkdpi-23">
          <mxGeometry relative="1" as="geometry" />
        </mxCell>
        <mxCell id="RcgU6G-KKBRbS7jpkdpi-5" value="输入问题" style="shape=parallelogram;perimeter=parallelogramPerimeter;whiteSpace=wrap;html=1;fixedSize=1;" vertex="1" parent="WIyWlLk6GJQsqaUBKTNV-1">
          <mxGeometry x="60" y="630" width="120" height="50" as="geometry" />
        </mxCell>
        <mxCell id="RcgU6G-KKBRbS7jpkdpi-20" style="edgeStyle=orthogonalEdgeStyle;rounded=0;orthogonalLoop=1;jettySize=auto;html=1;exitX=0.5;exitY=1;exitDx=0;exitDy=0;" edge="1" parent="WIyWlLk6GJQsqaUBKTNV-1" source="RcgU6G-KKBRbS7jpkdpi-7" target="RcgU6G-KKBRbS7jpkdpi-5">
          <mxGeometry relative="1" as="geometry" />
        </mxCell>
        <mxCell id="RcgU6G-KKBRbS7jpkdpi-7" value="基于LLM" style="rounded=1;whiteSpace=wrap;html=1;" vertex="1" parent="WIyWlLk6GJQsqaUBKTNV-1">
          <mxGeometry y="530" width="60" height="40" as="geometry" />
        </mxCell>
        <mxCell id="RcgU6G-KKBRbS7jpkdpi-21" style="edgeStyle=orthogonalEdgeStyle;rounded=0;orthogonalLoop=1;jettySize=auto;html=1;exitX=0.5;exitY=1;exitDx=0;exitDy=0;entryX=0.5;entryY=0;entryDx=0;entryDy=0;" edge="1" parent="WIyWlLk6GJQsqaUBKTNV-1" source="RcgU6G-KKBRbS7jpkdpi-8" target="RcgU6G-KKBRbS7jpkdpi-5">
          <mxGeometry relative="1" as="geometry" />
        </mxCell>
        <mxCell id="RcgU6G-KKBRbS7jpkdpi-8" value="基于知识库" style="rounded=1;whiteSpace=wrap;html=1;" vertex="1" parent="WIyWlLk6GJQsqaUBKTNV-1">
          <mxGeometry x="90" y="530" width="60" height="40" as="geometry" />
        </mxCell>
        <mxCell id="RcgU6G-KKBRbS7jpkdpi-22" style="edgeStyle=orthogonalEdgeStyle;rounded=0;orthogonalLoop=1;jettySize=auto;html=1;exitX=0.5;exitY=1;exitDx=0;exitDy=0;" edge="1" parent="WIyWlLk6GJQsqaUBKTNV-1" source="RcgU6G-KKBRbS7jpkdpi-9">
          <mxGeometry relative="1" as="geometry">
            <mxPoint x="120" y="630" as="targetPoint" />
          </mxGeometry>
        </mxCell>
        <mxCell id="RcgU6G-KKBRbS7jpkdpi-9" value="基于浏览器" style="rounded=1;whiteSpace=wrap;html=1;" vertex="1" parent="WIyWlLk6GJQsqaUBKTNV-1">
          <mxGeometry x="180" y="530" width="60" height="40" as="geometry" />
        </mxCell>
        <mxCell id="RcgU6G-KKBRbS7jpkdpi-17" style="edgeStyle=orthogonalEdgeStyle;rounded=0;orthogonalLoop=1;jettySize=auto;html=1;exitX=0.5;exitY=1;exitDx=0;exitDy=0;entryX=0.5;entryY=0;entryDx=0;entryDy=0;" edge="1" parent="WIyWlLk6GJQsqaUBKTNV-1" source="RcgU6G-KKBRbS7jpkdpi-15" target="RcgU6G-KKBRbS7jpkdpi-8">
          <mxGeometry relative="1" as="geometry" />
        </mxCell>
        <mxCell id="RcgU6G-KKBRbS7jpkdpi-18" style="edgeStyle=orthogonalEdgeStyle;rounded=0;orthogonalLoop=1;jettySize=auto;html=1;exitX=0.5;exitY=1;exitDx=0;exitDy=0;entryX=0.5;entryY=0;entryDx=0;entryDy=0;" edge="1" parent="WIyWlLk6GJQsqaUBKTNV-1" source="RcgU6G-KKBRbS7jpkdpi-15" target="RcgU6G-KKBRbS7jpkdpi-9">
          <mxGeometry relative="1" as="geometry" />
        </mxCell>
        <mxCell id="RcgU6G-KKBRbS7jpkdpi-19" style="edgeStyle=orthogonalEdgeStyle;rounded=0;orthogonalLoop=1;jettySize=auto;html=1;exitX=0.5;exitY=1;exitDx=0;exitDy=0;entryX=0.5;entryY=0;entryDx=0;entryDy=0;" edge="1" parent="WIyWlLk6GJQsqaUBKTNV-1" source="RcgU6G-KKBRbS7jpkdpi-15" target="RcgU6G-KKBRbS7jpkdpi-7">
          <mxGeometry relative="1" as="geometry" />
        </mxCell>
        <mxCell id="RcgU6G-KKBRbS7jpkdpi-15" value="选择" style="shape=parallelogram;perimeter=parallelogramPerimeter;whiteSpace=wrap;html=1;fixedSize=1;" vertex="1" parent="WIyWlLk6GJQsqaUBKTNV-1">
          <mxGeometry x="60" y="430" width="120" height="50" as="geometry" />
        </mxCell>
        <mxCell id="RcgU6G-KKBRbS7jpkdpi-23" value="得到解答" style="rounded=1;whiteSpace=wrap;html=1;fontSize=12;glass=0;strokeWidth=1;shadow=0;" vertex="1" parent="WIyWlLk6GJQsqaUBKTNV-1">
          <mxGeometry x="60" y="720" width="120" height="40" as="geometry" />
        </mxCell>
        <mxCell id="RcgU6G-KKBRbS7jpkdpi-25" value="增加数据" style="shape=parallelogram;perimeter=parallelogramPerimeter;whiteSpace=wrap;html=1;fixedSize=1;" vertex="1" parent="WIyWlLk6GJQsqaUBKTNV-1">
          <mxGeometry x="260" y="480" width="70" height="40" as="geometry" />
        </mxCell>
        <mxCell id="RcgU6G-KKBRbS7jpkdpi-27" value="删除数据" style="shape=parallelogram;perimeter=parallelogramPerimeter;whiteSpace=wrap;html=1;fixedSize=1;" vertex="1" parent="WIyWlLk6GJQsqaUBKTNV-1">
          <mxGeometry x="325" y="480" width="70" height="40" as="geometry" />
        </mxCell>
        <mxCell id="RcgU6G-KKBRbS7jpkdpi-28" value="修改数据" style="shape=parallelogram;perimeter=parallelogramPerimeter;whiteSpace=wrap;html=1;fixedSize=1;" vertex="1" parent="WIyWlLk6GJQsqaUBKTNV-1">
          <mxGeometry x="390" y="480" width="70" height="40" as="geometry" />
        </mxCell>
        <mxCell id="RcgU6G-KKBRbS7jpkdpi-33" value="对应鸟类科普" style="rounded=1;whiteSpace=wrap;html=1;fontSize=12;glass=0;strokeWidth=1;shadow=0;" vertex="1" parent="WIyWlLk6GJQsqaUBKTNV-1">
          <mxGeometry x="660" y="530" width="120" height="40" as="geometry" />
        </mxCell>
      </root>
    </mxGraphModel>
  </diagram>
</mxfile>
